<?xml version="1.0" encoding="UTF-8" standalone="no"?>
<!-- Generator: Adobe Illustrator 21.1.0, SVG Export Plug-In . SVG Version: 6.00 Build 0)  -->

<svg
   xmlns:dc="http://purl.org/dc/elements/1.1/"
   xmlns:cc="http://creativecommons.org/ns#"
   xmlns:rdf="http://www.w3.org/1999/02/22-rdf-syntax-ns#"
   xmlns:svg="http://www.w3.org/2000/svg"
   xmlns="http://www.w3.org/2000/svg"
   xmlns:sodipodi="http://sodipodi.sourceforge.net/DTD/sodipodi-0.dtd"
   xmlns:inkscape="http://www.inkscape.org/namespaces/inkscape"
   version="1.1"
   id="Layer_1"
   x="0px"
   y="0px"
   viewBox="0 0 272.89999 471.40622"
   xml:space="preserve"
   inkscape:version="0.91 r13725"
   sodipodi:docname="palm1.svg"
   width="272.89999"
   height="471.40622"><metadata
     id="metadata45"><rdf:RDF><cc:Work
         rdf:about=""><dc:format>image/svg+xml</dc:format><dc:type
           rdf:resource="http://purl.org/dc/dcmitype/StillImage" /><dc:title></dc:title></cc:Work></rdf:RDF></metadata><defs
     id="defs43" /><sodipodi:namedview
     pagecolor="#ffffff"
     bordercolor="#666666"
     borderopacity="1"
     objecttolerance="10"
     gridtolerance="10"
     guidetolerance="10"
     inkscape:pageopacity="0"
     inkscape:pageshadow="2"
     inkscape:window-width="1446"
     inkscape:window-height="806"
     id="namedview41"
     showgrid="false"
     fit-margin-top="0"
     fit-margin-left="0"
     fit-margin-right="0"
     fit-margin-bottom="0"
     inkscape:zoom="0.22142857"
     inkscape:cx="645.9"
     inkscape:cy="433.60614"
     inkscape:window-x="0"
     inkscape:window-y="0"
     inkscape:window-maximized="0"
     inkscape:current-layer="Layer_1" /><style
     type="text/css"
     id="style3">
	.st0{fill:rgba(235, 206, 255, 0.4);}
	.st1{fill:rgba(245, 219, 255, 0.4);}
	.st2{fill:rgba(253, 219, 255, 0.4);}
</style><g
     id="g5"
     transform="translate(-54.1,-452.19992)"><path
       class="st0"
       d="m 198.3,851.4 c 0,0 14.6,-31.7 22.2,-38.4 7.6,-6.7 101.2,-133.3 106.5,-145.4 -0.1,0 -58.2,165.7 -128.7,183.8 z"
       id="path7"
       inkscape:connector-curvature="0" /><path
       class="st1"
       d="m 194,811 c 0,0 12.5,-26.7 19,-32.3 6.5,-5.6 86.2,-112 90.8,-122.3 -0.1,0 -50.1,139.7 -109.8,154.6 z"
       id="path9"
       inkscape:connector-curvature="0" /><path
       class="st0"
       d="m 188.8,765 c 0,0 12.9,-26.5 19.5,-32 6.6,-5.5 87.9,-110.3 92.6,-120.4 0,0.1 -52.1,138.8 -112.1,152.4 z"
       id="path11"
       inkscape:connector-curvature="0" /><path
       class="st1"
       d="m 187.8,725.2 c 0,0 11.1,-24.4 16.9,-29.5 5.8,-5.1 77.2,-102.5 81.2,-111.8 0.1,0 -44.1,127.2 -98.1,141.3 z"
       id="path13"
       inkscape:connector-curvature="0" /><path
       class="st0"
       d="m 192.5,679.9 c 0,0 9.9,-22.1 15.2,-26.8 5.3,-4.7 69.2,-93.1 72.8,-101.6 -0.1,0 -39.3,115.2 -88,128.4 z"
       id="path15"
       inkscape:connector-curvature="0" /><path
       class="st1"
       d="m 204.8,621.3 c 0,0 10.3,-19.9 15.2,-23.8 4.9,-3.9 66.8,-81.2 70.6,-88.8 -0.1,0 -43.2,104.7 -85.8,112.6 z"
       id="path17"
       inkscape:connector-curvature="0" /><path
       class="st0"
       d="m 216.5,579.2 c 0,0 8.4,-17.5 12.6,-21.1 4.1,-3.6 55.9,-72.6 58.9,-79.3 -0.1,0 -34.9,92.1 -71.5,100.4 z"
       id="path19"
       inkscape:connector-curvature="0" /><path
       class="st0"
       d="m 198.4,849.6 c 0,0 -17.3,-29.8 -25.5,-35.6 -8.2,-5.8 -112.5,-120.5 -118.8,-131.9 0,0 72.5,157.9 144.3,167.5 z"
       id="path21"
       inkscape:connector-curvature="0" /><path
       class="st1"
       d="m 190.9,809.2 c 0,0 -13.1,-26.3 -19.8,-31.7 -6.6,-5.4 -88.9,-109.2 -93.6,-119.3 0,0 53.4,138 113.4,151 z"
       id="path23"
       inkscape:connector-curvature="0" /><path
       class="st0"
       d="m 187,764.6 c 0,0 -11.5,-27.3 -17.8,-33.3 -6.3,-5.9 -82,-116.2 -86.2,-126.6 0,0 44.8,142.1 104,159.9 z"
       id="path25"
       inkscape:connector-curvature="0" /><path
       class="st0"
       d="m 191.5,680.8 c 0,0 -7.3,-26.3 -12.3,-32.5 -5,-6.2 -60.6,-116.6 -63.2,-126.5 0,0 24.4,134.2 75.5,159 z"
       id="path27"
       inkscape:connector-curvature="0" /><path
       class="st1"
       d="m 186.5,723.7 c 0,0 -7.9,-25.9 -13,-32 -5.1,-6.1 -63.2,-114.2 -65.9,-124.1 0,0 27.4,133 78.9,156.1 z"
       id="path29"
       inkscape:connector-curvature="0" /><path
       class="st1"
       d="m 198,648.2 c 0,0 -5.2,-24.2 -9.3,-30.2 -4.1,-6 -48.5,-109.4 -50.3,-118.5 0,0 14.9,122.7 59.6,148.7 z"
       id="path31"
       inkscape:connector-curvature="0" /><path
       class="st0"
       d="m 205,609.7 c 0,0 -2.9,-23 -6,-28.8 -3.2,-5.8 -34.5,-105 -35.4,-113.6 0,0 4.8,116 41.4,142.4 z"
       id="path33"
       inkscape:connector-curvature="0" /><path
       class="st0"
       d="m 213.8,582.3 c 0,0 3.8,-19.6 2.8,-25.4 -1,-5.8 0.3,-97.3 1.9,-104.7 0.1,-0.1 -27.2,95.4 -4.7,130.1 z"
       id="path35"
       inkscape:connector-curvature="0" /><path
       class="st1"
       d="m 224.6,555 c -0.1,-0.2 11.8,-16.6 13.7,-22.4 0.8,-2.9 12.5,-25.6 28.5,-44.1 15.4,-19.2 35,-34.2 38.2,-35.4 0.5,0.2 -23.6,7 -45,27.1 -21.6,18.8 -40.5,51.1 -35.4,74.8 z"
       id="path37"
       inkscape:connector-curvature="0" /><path
       class="st2"
       d="m 225.2,547 c -1.5,3.7 -3,7.4 -4.4,11.2 -1.4,3.8 -2.7,7.5 -4,11.3 -2.6,7.6 -5.1,15.2 -7.4,23 -4.6,15.4 -8.7,31.1 -12.1,46.9 -3.5,15.8 -6.3,31.9 -8.4,48.1 -0.3,2 -0.5,4 -0.8,6.1 l -0.7,6.1 -0.6,6.1 c -0.2,2 -0.4,4.1 -0.6,6.1 -0.7,8.2 -1.2,16.3 -1.5,24.5 -0.3,8.2 -0.3,16.4 -0.1,24.6 0.2,8.2 0.6,16.4 1.3,24.6 1.4,16.3 3.9,32.6 7.6,48.5 1.8,8 4.1,15.8 6.5,23.5 2.5,7.7 5.4,15.3 8.5,22.7 l 2.4,5.5 2.6,5.4 c 0.8,1.8 1.8,3.6 2.7,5.4 l 1.4,2.7 0.7,1.3 0.7,1.3 2.9,5.2 c 0.5,0.9 1,1.7 1.5,2.6 l 1.5,2.5 1.5,2.5 c 0.5,0.8 1.1,1.7 1.6,2.5 l 3.2,4.9 c 1.1,1.7 3.1,2 4.5,0.7 1.4,-1.3 1.7,-3.6 0.6,-5.3 l 0,0 -0.1,-0.1 -3.2,-4.7 c -0.5,-0.8 -1.1,-1.6 -1.6,-2.4 l -1.5,-2.4 -1.5,-2.4 c -0.5,-0.8 -1,-1.6 -1.5,-2.5 l -2.9,-5 -0.7,-1.3 -0.7,-1.3 -1.4,-2.6 c -0.9,-1.7 -1.8,-3.4 -2.6,-5.2 l -2.5,-5.2 -2.4,-5.3 c -3.1,-7.2 -6,-14.5 -8.5,-22 -2.5,-7.5 -4.7,-15.1 -6.6,-22.9 -3.8,-15.5 -6.3,-31.4 -7.9,-47.4 -0.7,-8 -1.3,-16.1 -1.5,-24.1 -0.2,-8.1 -0.3,-16.2 -0.1,-24.2 0.2,-8.1 0.6,-16.2 1.2,-24.2 0.2,-2 0.3,-4 0.5,-6 l 0.6,-6 0.6,-6 c 0.2,-2 0.5,-4 0.7,-6 2,-16 4.6,-32 7.9,-47.7 3.3,-15.8 7.2,-31.4 11.6,-46.7 2.2,-7.7 4.6,-15.3 7.1,-22.9 1.3,-3.8 2.6,-7.5 3.9,-11.3 1.3,-3.7 2.7,-7.5 4.2,-11.1 l 0,0 c 0.3,-0.9 0,-1.9 -0.7,-2.3 -0.3,-0.6 -1.2,-0.2 -1.5,0.7 z"
       id="path39"
       inkscape:connector-curvature="0" /></g></svg>
