<?xml version="1.0" encoding="utf-8"?>
<!-- Generator: Adobe Illustrator 21.1.0, SVG Export Plug-In . SVG Version: 6.00 Build 0)  -->
<svg version="1.1" id="Layer_1" xmlns="http://www.w3.org/2000/svg" xmlns:xlink="http://www.w3.org/1999/xlink" x="0px" y="0px"
	 viewBox="0 0 1400 980" style="enable-background:new 0 0 1400 980;" xml:space="preserve">
<style type="text/css">
	.st0{fill:#659564;}
	.st1{fill:#84B783;}
	.st2{fill:#466B45;}
	.st3{fill:#547C52;}
	.st4{opacity:0.45;fill:#84B783;}
	.st5{opacity:0.43;fill:#547C52;}
</style>
<g>
	<g>
		<path class="st0" d="M1146.1,388.8L1146.1,388.8c-1.4,1.2-90.7,79-139.5,73.7c-0.3,0-0.6-0.1-0.9-0.1
			C1005.7,462.5,1022.4,419.3,1146.1,388.8z"/>
		<path class="st1" d="M1146.1,388.8c-1.3,1.2-90.7,79-139.5,73.7L1146.1,388.8z"/>
	</g>
	<g>
		<path class="st2" d="M1138.1,390.5L1138.1,390.5c-1.5,1-98.5,69.1-146.4,58.8c-0.3-0.1-0.6-0.1-0.9-0.2
			C990.8,449.2,1011.9,408,1138.1,390.5z"/>
	</g>
	<g>
		<path class="st3" d="M1141.6,385.5L1141.6,385.5c-2.1,0.7-137,43-187.9,14c-0.3-0.2-0.6-0.4-0.9-0.5
			C952.8,398.9,991.7,359.7,1141.6,385.5z"/>
	</g>
	<g>
		<path class="st2" d="M1139.1,377.4L1139.1,377.4c-2.3,0.1-151,8.7-195.4-34c-0.3-0.3-0.5-0.5-0.8-0.8
			C942.8,342.7,992.6,312.6,1139.1,377.4z"/>
	</g>
	<g>
		<path class="st3" d="M1122.8,318C1122.8,318,1122.8,318,1122.8,318c-1.2-0.2-19-28.2-49.1-56.2c-28.6-29-69.6-58-82.3-82.3
			c-0.1-0.3-0.3-0.6-0.4-0.9c0,0.8,18.5-2.1,48.9,15.3C1069.1,210.7,1110.1,247.9,1122.8,318z"/>
	</g>
	<g>
		<path class="st2" d="M1141.6,377.8c-14.4-64.3-83.2-119-111-135.2c-30.5-17.4-49-14.5-48.9-15.3c0.1,0.3,0.3,0.6,0.4,0.9
			c12.7,24.3,53.7,53.4,82.3,82.3c19.7,18.3,64.1,56.7,72.1,67.2H1141.6z"/>
	</g>
	<g>
		<path class="st3" d="M1104.7,355.5C1104.7,355.5,1104.7,355.5,1104.7,355.5c-1.2,0.4-30.5-15-70.6-24.3
			c-39.2-10.9-89.2-15.7-112.4-30.4c-0.3-0.2-0.6-0.4-0.8-0.6c0.4,0.7,15-11,50.1-11.1C1004.6,289.2,1058.8,301,1104.7,355.5z"/>
	</g>
	<g>
		<path class="st2" d="M1133.9,308.9L1133.9,308.9c-0.8-1.9-51.1-126.7-32.5-184c0.1-0.4,0.2-0.7,0.3-1
			C1101.8,123.8,1138.9,153.5,1133.9,308.9z"/>
	</g>
	<g>
		<path class="st2" d="M1146.8,317.6L1146.8,317.6c-0.1-2.1-5.7-142,32.7-191.7c0.2-0.3,0.5-0.6,0.7-0.9
			C1180.2,125,1206.2,167.2,1146.8,317.6z"/>
	</g>
	<g>
		<path class="st3" d="M1155.8,333.1L1155.8,333.1c0.5-2.1,30.3-138.8,79.9-177.2c0.3-0.2,0.6-0.5,0.9-0.7
			C1236.7,155.1,1251.2,202.4,1155.8,333.1z"/>
	</g>
	<g>
		<path class="st0" d="M1146.1,388.8C1146.1,388.8,1146.1,388.8,1146.1,388.8c-0.8,0.5-32.7,6.1-67.3,17.4
			c-35.3,10.5-73.3,26.6-101.6,29.6c-0.4,0-0.7,0.1-1,0.1c0.7-0.3,2.7-9.9,26.3-24.9C1025.7,397.4,1070.5,378.2,1146.1,388.8z"/>
		<path class="st1" d="M1146.1,388.8c-0.8,0.5-32.6,6.1-67.2,17.4c-35.3,10.5-73.3,26.6-101.6,29.6
			C1028.5,406.4,1086.5,390.1,1146.1,388.8z"/>
	</g>
	<g>
		<path class="st2" d="M1151.2,387.8L1151.2,387.8c1.5,1,98.5,69.1,146.4,58.8c0.3-0.1,0.6-0.1,0.9-0.2
			C1298.5,446.5,1277.4,405.3,1151.2,387.8z"/>
	</g>
	<g>
		<path class="st2" d="M1145.3,388.3v0.2c7.8,0,152-1.1,193.5-45.1c0.3-0.3,0.5-0.5,0.8-0.8C1339.5,342.5,1288,316.4,1145.3,388.3z"
			/>
	</g>
	<g>
		<path class="st2" d="M1177.2,324.3C1177.2,324.3,1177.2,324.3,1177.2,324.3c1.2-0.2,19-28.2,49.1-56.2c28.6-29,69.6-58,82.3-82.3
			c0.1-0.3,0.3-0.6,0.4-0.9c0,0.8-18.5-2.1-48.9,15.3C1230.9,217,1189.9,254.1,1177.2,324.3z"/>
	</g>
	<g>
		<path class="st2" d="M1159.5,385C1159.5,385,1159.5,385,1159.5,385c0.8,0.9,33.9,1.9,73.4,13.5c39.5,9.8,85.4,30.2,112.8,28.7
			c0.3,0,0.7-0.1,1-0.1c-0.7,0.4-7.7-16.9-38.2-34.3C1279.2,376.4,1226.3,360.1,1159.5,385z"/>
	</g>
	<g>
		<path class="st3" d="M1139.8,383.1c0,0,43-18.4,43-18.4c1.2,0.2,28.1-19.1,66.4-34c37.3-16.3,86.1-28,107-45.9
			c0.3-0.2,0.5-0.5,0.7-0.7c-0.3,0.8-16.4-8.8-51.1-4C1272.5,285.1,1175.2,308.9,1139.8,383.1z"/>
	</g>
	<g>
		<path class="st0" d="M1140.5,388.8C1140.5,388.8,1140.5,388.8,1140.5,388.8c0.8,0.5,32.7,6.1,67.3,17.4
			c35.3,10.5,73.3,26.6,101.6,29.6c0.4,0,0.7,0.1,1,0.1c-0.7-0.3-2.7-9.9-26.3-24.9C1260.9,397.4,1216.1,378.2,1140.5,388.8z"/>
		<path class="st1" d="M1140.5,388.8c0.8,0.5,32.6,6.1,67.2,17.4c35.3,10.5,73.3,26.6,101.6,29.6
			C1258.1,406.4,1200.1,390.1,1140.5,388.8z"/>
	</g>
	<g>
		<path class="st0" d="M1146.1,389C1146.1,389,1146.1,389,1146.1,389c-1-0.1-34.1-15.5-73.3-27.6c-39.3-13.2-84.8-23.1-112.9-38.7
			c-0.3-0.2-0.7-0.4-1-0.6c0.8,0.2,8.9-7.3,40.4-5.8C1029.6,318.8,1083.4,330.2,1146.1,389z"/>
		<path class="st1" d="M1146.1,389c-1-0.1-34.1-15.5-73.3-27.6c-39.3-13.2-84.8-23.1-112.9-38.7
			C1026.4,328.9,1090.4,351.6,1146.1,389z"/>
	</g>
	<g>
		<path class="st0" d="M1145.9,388.8C1145.9,388.8,1145.9,388.8,1145.9,388.8c-1-0.7-24.6-36-56.5-71.6
			c-31.2-36.8-70.6-73.9-89.2-106.3c-0.2-0.4-0.4-0.8-0.7-1.2c0.7,0.7,13.3-2,43.8,18.5C1072,248.8,1118.7,292.4,1145.9,388.8z"/>
		<path class="st1" d="M1145.9,388.8c-1-0.7-24.6-35.9-56.4-71.5c-31.2-36.8-70.6-73.9-89.2-106.3
			C1062.7,256.9,1112.9,318,1145.9,388.8z"/>
	</g>
	<g>
		<path class="st0" d="M1146.1,389.1C1146.1,389.1,1146,389.1,1146.1,389.1c-1.2-0.5-37.7-30.8-82-59.3
			c-44.2-29.9-96.1-58-126.8-86.7c-0.4-0.4-0.8-0.7-1.1-1.1c0.9,0.5,11.5-5.5,48.2,7.7C1019.5,263.6,1080.9,296.6,1146.1,389.1z"/>
		<path class="st1" d="M1146,389.1c-1.2-0.5-37.7-30.7-82-59.2c-44.2-29.9-96.1-58-126.8-86.7C1014.2,274.4,1086.1,324.5,1146,389.1
			z"/>
	</g>
	<g>
		<path class="st0" d="M1145.8,388.7C1145.7,388.7,1145.7,388.7,1145.8,388.7c-1,0.1-36.4-5.6-75.8-7.6c-40-2.9-84.1-2.1-115.1-8.8
			c-0.4-0.1-0.8-0.2-1.1-0.3c0.8,0,4.8-7.1,33.2-11.7C1014.4,356.7,1066.4,355.6,1145.8,388.7z"/>
		<path class="st1" d="M1145.7,388.7c-0.9,0.1-36.3-5.6-75.8-7.6c-40-2.9-84.1-2.1-115.1-8.8
			C1015.7,364.9,1081.3,370.5,1145.7,388.7z"/>
	</g>
	<g>
		<path class="st1" d="M1146.5,386.7c0,0-16.8-102.8-17.3-124.7c-0.5-21.9,17.3-181,17.3-181s15.4,173.4,14.7,182.8
			C1159.9,279.4,1146.5,386.7,1146.5,386.7z"/>
		<path class="st0" d="M1146.7,83.4v301.9c1.6-13.1,13.3-106.9,14.5-121.4C1161.9,255.1,1148.5,104.1,1146.7,83.4z"/>
	</g>
	<g>
		<path class="st1" d="M1146,388.2c-0.1,0.1-7.9-22.2-18.7-45.2c-10.5-23.2-23.9-47.1-27.7-55.7c-3.5-8.7-14.7-46.6-30.6-80.7
			c-15-34.4-34.6-65.1-34.4-65.1c-0.2,0,27.9,27.8,51.1,61c24,32.5,43.2,70.4,44.2,74.5c2.2,6.8,8.6,34.6,11.8,60.7
			C1145.5,363.8,1145.9,388.2,1146,388.2z"/>
		<path class="st0" d="M1036.1,143c56.3,70.8,94.1,154.6,109.9,243.7c-0.2-5.9-1.3-30.3-4.9-54.6c-3.3-24.4-9.1-48.8-11.1-55.1
			c-1.1-3.7-17.5-37-39.3-67.7C1069.4,178.1,1042.7,149.6,1036.1,143z"/>
	</g>
	<g>
		<path class="st0" d="M1145.8,389L1145.8,389c1.4,1.2,90.7,79,139.5,73.7c0.3,0,0.6-0.1,0.9-0.1
			C1286.1,462.6,1269.5,419.5,1145.8,389z"/>
		<path class="st1" d="M1145.8,389c1.3,1.2,90.7,79,139.5,73.7L1145.8,389z"/>
	</g>
	<g>
		<path class="st0" d="M1145.7,389C1145.7,389,1145.7,389,1145.7,389c0.8,0.5,32.7,6.1,67.3,17.4c35.3,10.5,73.3,26.6,101.6,29.6
			c0.4,0,0.7,0.1,1,0.1c-0.7-0.3-2.7-9.9-26.3-24.9C1266.1,397.5,1221.3,378.4,1145.7,389z"/>
		<path class="st1" d="M1145.7,389c0.8,0.5,32.6,6.1,67.2,17.4c35.3,10.5,73.3,26.6,101.6,29.6
			C1263.3,406.6,1205.3,390.3,1145.7,389z"/>
	</g>
	<g>
		<path class="st0" d="M1144.5,388.6C1144.5,388.6,1144.5,388.6,1144.5,388.6c1-0.1,34-15.8,73.1-28.1
			c39.2-13.5,84.6-23.7,112.6-39.5c0.3-0.2,0.7-0.4,1-0.6c-0.8,0.2-8.9-7.3-40.5-5.5C1260.4,317.5,1206.8,329.3,1144.5,388.6z"/>
		<path class="st1" d="M1144.5,388.6c1-0.1,34-15.8,73.1-28.1c39.2-13.5,84.6-23.7,112.6-39.5
			C1263.8,327.6,1199.9,350.8,1144.5,388.6z"/>
	</g>
	<g>
		<path class="st0" d="M1145.3,388.1C1145.3,388.1,1145.3,388.1,1145.3,388.1c1.1-0.5,33.2-28.3,73.3-54.4
			c39.8-27.4,87.6-53,114.1-79.5c0.3-0.3,0.6-0.7,1-1c-0.9,0.4-12.4-5.4-47.3,6.4C1253.1,272,1196.5,302,1145.3,388.1z"/>
		<path class="st1" d="M1145.3,388.1c1.1-0.4,33.2-28.3,73.2-54.4c39.8-27.4,87.6-53,114.1-79.5
			C1260.1,282.3,1195.7,328.3,1145.3,388.1z"/>
	</g>
	<g>
		<path class="st0" d="M1153.3,377C1153.3,377,1153.3,377,1153.3,377c1-0.7,27.5-33.9,62.2-66.8c34.2-34.2,76.6-68,97.8-98.8
			c0.3-0.4,0.5-0.8,0.8-1.2c-0.8,0.6-13.1-3.1-45.3,14.8C1238.4,243.3,1188.1,283.1,1153.3,377z"/>
		<path class="st1" d="M1153.3,377c1-0.6,27.5-33.8,62.2-66.7c34.2-34.2,76.6-68,97.8-98.8C1247.1,252.2,1192,309.1,1153.3,377z"/>
	</g>
	<g>
		<path class="st0" d="M1145.8,388.8C1145.8,388.8,1145.8,388.8,1145.8,388.8c1-1,24.1-45.5,55.4-91.5
			c30.7-47.3,69.7-96.1,87.7-136.6c0.2-0.5,0.4-1,0.6-1.5c-0.7,0.9-13.4-0.6-43.8,27.4C1217.2,214.4,1171.1,271.8,1145.8,388.8z"/>
		<path class="st1" d="M1145.8,388.7c1-1,24.1-45.5,55.4-91.5c30.7-47.3,69.7-96.1,87.7-136.6
			C1226.8,222.8,1177.6,301.2,1145.8,388.7z"/>
	</g>
	<g>
		<path class="st0" d="M1144.7,389C1144.7,389,1144.7,389,1144.7,389c1,0.1,36.2-6.4,75.6-9.4c39.9-3.8,84-4.1,114.9-11.5
			c0.4-0.1,0.8-0.2,1.1-0.3c-0.8,0-5-7-33.4-10.9C1275.2,353.9,1223.3,354,1144.7,389z"/>
		<path class="st1" d="M1144.7,389c0.9,0.1,36.2-6.4,75.6-9.4c39.9-3.8,84-4.1,114.9-11.5C1274.2,362.2,1208.7,369.3,1144.7,389z"/>
	</g>
	<g>
		<path class="st1" d="M1147.6,377.4c0.1,0.1,5.8-22.9,14.5-46.7c8.3-24.1,19.5-49,22.6-57.9c2.7-8.9,10.4-47.7,23.1-83.2
			c11.8-35.6,28.5-68,28.4-67.9c0.2-0.1-25.3,30.2-45.4,65.4c-21,34.6-36.6,74.1-37.3,78.2c-1.6,7-5.4,35.2-6.3,61.5
			C1146,353.1,1147.7,377.5,1147.6,377.4z"/>
		<path class="st0" d="M1234.9,123.3c-49.7,75.7-79.7,162.5-87.3,252.7c-0.3-5.9-1.5-30.2-0.1-54.8c1.1-24.6,4.7-49.4,6.1-55.9
			c0.7-3.8,14-38.5,33-71C1204.9,161.3,1228.9,130.4,1234.9,123.3z"/>
	</g>
	<path class="st3" d="M1143.3,380l-16.7,98.7h27.1l-3.8-98.4c-0.1-1.5-1.5-2.7-3.3-2.7l0,0C1144.9,377.6,1143.5,378.6,1143.3,380z"
		/>
</g>
<path class="st3" d="M1304.7,747.9c-0.2,4.8-0.5,9.5-1.1,14.1c-2.3,19.3-17.4,34.6-36.7,37c-27.3,3.4-53.6,4.6-71.9,0.4
	c-7.5-1.7-14.7,3.9-14.7,11.7v2c0,7.4,5.8,13.6,13.3,14c18.5,0.9,51.5,2.2,87.2,1.7c-18,31.2-41.8,53.9-56.2,66.9
	c-33.5,30.4-72.8,1.2-71.3-36.2c1-23.8-8.8-29.8-16-31c0,0,0,0-0.1,0c-1.1-0.2-2.1-0.2-3-0.3c0,0.3,0,0.4,0.1,0.4
	c0,0-0.8-0.2-2.2-0.4c-1.4,0.1-2.2,0.4-2.2,0.4c0,0,0-0.2,0.1-0.4c-0.8,0-1.6,0.1-2.5,0.2c-7.2,1-17.5,6.6-16.5,31
	c1.6,37.4-37.8,66.6-71.3,36.2c-10.3-9.3-25.4-23.6-39.8-42.4c60.1,2.6,88.9-45.7,61.7-35.3c-12.9,4.9-32.4,5-52,3.2
	c-21.5-1.9-39.6-17.1-44.9-38c-1.3-5.2-2.5-10.6-3.3-16.1c23.7,13.4,56.7,26.2,91.2,21.3c52.6-7.4-18.6-10.7-81-41
	c-7.6-3.7-12.1-11.6-11.3-20c0,0,0-0.1,0-0.1c3-31.5,15.2-61.5,34.5-86.5c16.2,28.7,44.7,62.2,89,74.2c0.8,0.2,1.5,0.3,2.3,0.3
	c3,0,5.8-1.5,7.4-4.1c2.6-4.2,1.1-9.8-3.3-12.1c-15.3-8.1-49.7-28.2-71.7-60.4c-6-8.8-5.2-20.5,1.8-28.4
	c5.5-6.2,11.3-12.5,17.2-18.6c11.5,20.5,27.4,40.5,49.4,54.7c41.3,26.7,13.1-2.9-16.7-53c-7.6-12.8-3.5-29.3,9.3-36.9
	c0.1,0,0.1-0.1,0.2-0.1c18.6-10.9,33.4-17.4,43.9-21.2c3.4-1.2,6.3-2.2,8.7-2.9c2.4,0.7,5.3,1.7,8.7,2.9
	c10.4,3.8,25.3,10.3,43.9,21.2c11.3,6.6,23.6,17.1,35.6,28.8c-17.8,25.5-41,55-60.3,67.1c-3.1,1.9-4.7,5.2-4.7,8.6
	c0,2,0.6,4,1.8,5.8c3.4,4.9,10.4,5.8,14.9,1.9c13.9-12,42.3-37.1,67.2-63.7c2.4,2.6,4.7,5.2,7,7.8c10.3,11.7,9.3,29.5-2.2,40
	c-21.4,19.6-40.5,34.2-46.8,36.6c-3.2,1.2-5.2,4.3-5.2,7.6c0,0.5,0.1,1,0.2,1.6c0.9,4.7,5.6,7.6,10.2,6.3
	c22.2-6.3,50.6-31.5,73.5-55.3c6.2,9.1,11.4,18.8,15.7,28.8c8.5,19.9-2.1,42.7-22.5,49.5c-26.6,8.8-46.6,10.7-58.2,10.8
	c-6.8,0.1-12.5,5.1-13.4,11.9c-1,7.9,5,14.8,12.9,15.4C1243,768.3,1276.7,759.3,1304.7,747.9z"/>
<path class="st2" d="M1137.3,828.4c-1.1-0.2-2.1-0.2-3-0.3c0,0.3,0,0.4,0.1,0.4c0,0-0.8-0.2-2.2-0.4c-1.4,0.1-2.2,0.4-2.2,0.4
	c0,0,0-0.2,0.1-0.4c-0.8,0-1.6,0.1-2.5,0.2l2.5-246.9c0-2.1,1.1-3.8,2.4-3.8c0.6,0,1.2,0.4,1.7,1.1c0.4,0.7,0.7,1.7,0.7,2.7
	L1137.3,828.4C1137.4,828.4,1137.3,828.4,1137.3,828.4z"/>
<g>
	<path class="st0" d="M198.3,851.4c0,0,14.6-31.7,22.2-38.4c7.6-6.7,101.2-133.3,106.5-145.4C326.9,667.6,268.8,833.3,198.3,851.4z"
		/>
	<path class="st1" d="M194,811c0,0,12.5-26.7,19-32.3c6.5-5.6,86.2-112,90.8-122.3C303.7,656.4,253.7,796.1,194,811z"/>
	<path class="st0" d="M188.8,765c0,0,12.9-26.5,19.5-32c6.6-5.5,87.9-110.3,92.6-120.4C300.9,612.7,248.8,751.4,188.8,765z"/>
	<path class="st1" d="M187.8,725.2c0,0,11.1-24.4,16.9-29.5c5.8-5.1,77.2-102.5,81.2-111.8C286,583.9,241.8,711.1,187.8,725.2z"/>
	<path class="st0" d="M192.5,679.9c0,0,9.9-22.1,15.2-26.8s69.2-93.1,72.8-101.6C280.4,551.5,241.2,666.7,192.5,679.9z"/>
	<path class="st1" d="M204.8,621.3c0,0,10.3-19.9,15.2-23.8c4.9-3.9,66.8-81.2,70.6-88.8C290.5,508.7,247.4,613.4,204.8,621.3z"/>
	<path class="st0" d="M216.5,579.2c0,0,8.4-17.5,12.6-21.1c4.1-3.6,55.9-72.6,58.9-79.3C287.9,478.8,253.1,570.9,216.5,579.2z"/>
	<path class="st0" d="M198.4,849.6c0,0-17.3-29.8-25.5-35.6S60.4,693.5,54.1,682.1C54.1,682.1,126.6,840,198.4,849.6z"/>
	<path class="st1" d="M190.9,809.2c0,0-13.1-26.3-19.8-31.7c-6.6-5.4-88.9-109.2-93.6-119.3C77.5,658.2,130.9,796.2,190.9,809.2z"/>
	<path class="st0" d="M187,764.6c0,0-11.5-27.3-17.8-33.3c-6.3-5.9-82-116.2-86.2-126.6C83,604.7,127.8,746.8,187,764.6z"/>
	<path class="st0" d="M191.5,680.8c0,0-7.3-26.3-12.3-32.5S118.6,531.7,116,521.8C116,521.8,140.4,656,191.5,680.8z"/>
	<path class="st1" d="M186.5,723.7c0,0-7.9-25.9-13-32c-5.1-6.1-63.2-114.2-65.9-124.1C107.6,567.6,135,700.6,186.5,723.7z"/>
	<path class="st1" d="M198,648.2c0,0-5.2-24.2-9.3-30.2c-4.1-6-48.5-109.4-50.3-118.5C138.4,499.5,153.3,622.2,198,648.2z"/>
	<path class="st0" d="M205,609.7c0,0-2.9-23-6-28.8c-3.2-5.8-34.5-105-35.4-113.6C163.6,467.3,168.4,583.3,205,609.7z"/>
	<path class="st0" d="M213.8,582.3c0,0,3.8-19.6,2.8-25.4s0.3-97.3,1.9-104.7C218.6,452.1,191.3,547.6,213.8,582.3z"/>
	<path class="st1" d="M224.6,555c-0.1-0.2,11.8-16.6,13.7-22.4c0.8-2.9,12.5-25.6,28.5-44.1c15.4-19.2,35-34.2,38.2-35.4
		c0.5,0.2-23.6,7-45,27.1C238.4,499,219.5,531.3,224.6,555z"/>
	<path class="st2" d="M225.2,547c-1.5,3.7-3,7.4-4.4,11.2c-1.4,3.8-2.7,7.5-4,11.3c-2.6,7.6-5.1,15.2-7.4,23
		c-4.6,15.4-8.7,31.1-12.1,46.9c-3.5,15.8-6.3,31.9-8.4,48.1c-0.3,2-0.5,4-0.8,6.1l-0.7,6.1l-0.6,6.1c-0.2,2-0.4,4.1-0.6,6.1
		c-0.7,8.2-1.2,16.3-1.5,24.5c-0.3,8.2-0.3,16.4-0.1,24.6c0.2,8.2,0.6,16.4,1.3,24.6c1.4,16.3,3.9,32.6,7.6,48.5
		c1.8,8,4.1,15.8,6.5,23.5c2.5,7.7,5.4,15.3,8.5,22.7l2.4,5.5l2.6,5.4c0.8,1.8,1.8,3.6,2.7,5.4l1.4,2.7l0.7,1.3l0.7,1.3l2.9,5.2
		c0.5,0.9,1,1.7,1.5,2.6l1.5,2.5l1.5,2.5c0.5,0.8,1.1,1.7,1.6,2.5l3.2,4.9c1.1,1.7,3.1,2,4.5,0.7c1.4-1.3,1.7-3.6,0.6-5.3l0,0
		l-0.1-0.1l-3.2-4.7c-0.5-0.8-1.1-1.6-1.6-2.4l-1.5-2.4l-1.5-2.4c-0.5-0.8-1-1.6-1.5-2.5l-2.9-5l-0.7-1.3l-0.7-1.3l-1.4-2.6
		c-0.9-1.7-1.8-3.4-2.6-5.2l-2.5-5.2l-2.4-5.3c-3.1-7.2-6-14.5-8.5-22c-2.5-7.5-4.7-15.1-6.6-22.9c-3.8-15.5-6.3-31.4-7.9-47.4
		c-0.7-8-1.3-16.1-1.5-24.1c-0.2-8.1-0.3-16.2-0.1-24.2c0.2-8.1,0.6-16.2,1.2-24.2c0.2-2,0.3-4,0.5-6l0.6-6l0.6-6c0.2-2,0.5-4,0.7-6
		c2-16,4.6-32,7.9-47.7c3.3-15.8,7.2-31.4,11.6-46.7c2.2-7.7,4.6-15.3,7.1-22.9c1.3-3.8,2.6-7.5,3.9-11.3c1.3-3.7,2.7-7.5,4.2-11.1
		l0,0c0.3-0.9,0-1.9-0.7-2.3C226.4,545.7,225.5,546.1,225.2,547z"/>
</g>
<g>
	<path class="st0" d="M377.8,321.9l29.2,7.4l-29.1,4.7l-30.3,4.9c-5.7,0.9-11.4,1-17.1,0.2l-90.3-12.8l-11.1-0.2l-86.4,12.3
		c-5.7,0.8-11.4,0.8-17.1-0.2l-6.9-1.1l-52.5-8.5l52.9-13.3l7.2-1.8c5.7-1.5,11.6-2,17.6-1.6l60.7,3.9l-80.7-32.6l-2-0.8
		c-6.8-2.8-13.2-6.5-18.9-11.2l-59.9-49l76.5,21.9c5.3,1.5,10.4,3.6,15.2,6.3c1.8,1,3.6,2.1,5.3,3.3l42.4,28.4l-42.4-42l-0.2-0.2
		c-5.1-5.1-9.5-11-12.9-17.4l-36.3-68.3l62.1,49.7c2.5,2,4.8,4.1,7,6.4c3.1,3.2,5.8,6.6,8.3,10.3l46.2,69.8l-39.2-89.5
		c-0.6-1.4-1.2-2.9-1.8-4.3c-2.3-6.2-3.9-12.7-4.7-19.4l-10.5-85.6l43.8,77.4c1.3,2.2,2.4,4.5,3.4,6.8c2.4,5.4,4.3,11.1,5.6,16.9
		l17.3,79.2l-1.5-95c0-2.7,0-5.3,0.2-8c0.4-6.5,1.4-13,3.1-19.4l24.3-93.1l11,99c0.5,4.2,0.7,8.5,0.6,12.7
		c-0.1,5.2-0.5,10.5-1.4,15.7l-14.9,87.3l23.1-76.4c2.4-7.8,5.9-15.3,10.6-22l0,0l48.8-70.5l-16.4,81.7c-0.4,1.8-0.8,3.7-1.3,5.5
		c-1.6,5.8-3.9,11.5-6.8,16.8l-27.5,50.3l24.1-33.5c4.4-6.2,9.8-11.6,15.9-16.1l7.8-5.8l56.2-41.5l-37.4,64.1l-1.6,2.7
		c-3.7,6.4-8.4,12.1-13.8,17.1l-60.2,55.1l72.9-37.8c6-3.1,12.4-5.4,19.1-6.7c0.8-0.2,1.6-0.3,2.4-0.5l78.5-13.2l-64.9,42
		c-1.9,1.3-3.9,2.4-6,3.5c-4.5,2.3-9.2,4.2-14.1,5.6l-89.7,25.1l60-3.9c5.9-0.4,11.8,0.2,17.6,1.6L377.8,321.9z"/>
	<path class="st4" d="M377.9,329.3c0,1.6,0,3.2-0.1,4.7l-30.3,4.9c-5.7,0.9-11.4,1-17.1,0.2l-90.3-12.8l-11.1-0.2l-86.4,12.3
		c-5.7,0.8-11.4,0.8-17.1-0.2l-6.9-1.1c-0.1-2.6-0.1-5.1-0.1-7.7c0-4.7,0.2-9.4,0.5-14.1l7.2-1.8c5.7-1.5,11.6-2,17.6-1.6l60.7,3.9
		l-80.7-32.6c2.7-11.5,6.4-22.5,11-32.8c1.8,1,3.6,2.1,5.3,3.3l42.4,28.4l-42.4-42l-0.2-0.2c5.7-10.8,12.4-20.7,19.9-29.6
		c3.1,3.2,5.8,6.6,8.3,10.3l46.2,69.8l-39.2-89.5c-0.6-1.4-1.2-2.9-1.8-4.3c9.8-8.7,20.5-15.7,32-20.7c2.4,5.4,4.3,11.1,5.6,16.9
		l17.3,79.2l-1.5-95c0-2.7,0-5.3,0.2-8c6.9-1.4,14.1-2.2,21.4-2.2c6,0,11.9,0.5,17.6,1.5c-0.1,5.2-0.5,10.5-1.4,15.7l-14.9,87.3
		l23.1-76.4c2.4-7.8,5.9-15.3,10.6-22l0,0c11,3.9,21.4,9.5,31,16.7c-1.6,5.8-3.9,11.5-6.8,16.8l-27.5,50.3l24.1-33.5
		c4.4-6.2,9.8-11.6,15.9-16.1l7.8-5.8c6.9,6.7,13.2,14.3,18.8,22.6l-1.6,2.7c-3.7,6.4-8.4,12.1-13.8,17.1l-60.2,55.1l72.9-37.8
		c6-3.1,12.4-5.4,19.1-6.7c4.2,10,7.5,20.7,10,31.8c-4.5,2.3-9.2,4.2-14.1,5.6l-89.7,25.1l60-3.9c5.9-0.4,11.8,0.2,17.6,1.6
		l30.8,7.8C377.9,324.4,377.9,326.8,377.9,329.3z"/>
	<path class="st0" d="M332.3,339.3c-0.6-0.1-1.2-0.1-1.8-0.2l-90.3-12.8l-11.1-0.2l-78.8,11.2c0.4-8.5,1.3-16.8,2.9-24.8l51.4,3.3
		L157,296.5c2.6-8.9,6-17.3,10-25l15.7,10.5l-13.9-13.8c4.6-8.5,10-16.1,16-22.7l29.6,44.8l-22.7-51.7c7.9-7.1,16.5-12.5,25.8-16
		l10.7,49.3l-0.8-52.2c4.5-1,9.1-1.5,13.8-1.5c5.8,0,11.5,0.8,17,2.2l-8.6,50.7l14.8-48.8c9.3,3.4,18,8.7,25.8,15.7l-10.1,18.4
		l12-16.7c6.9,6.4,13,14.1,18.4,22.8l-39.2,35.9l45.8-23.8c3.8,8,7,16.6,9.5,25.7l-57.2,16l59.9-3.9
		C331,321.2,332,330.1,332.3,339.3z"/>
	<path class="st0" d="M240.6,426.2h-1.8c-3.7,0-6.7-3-6.7-6.7V319c0-4.1,3.3-7.4,7.4-7.4h0.3c4.1,0,7.4,3.3,7.4,7.4v100.6
		C247.2,423.2,244.2,426.2,240.6,426.2z"/>
</g>
<g>
	<path class="st0" d="M503,338.6c0,0,19.7-46,23.8-67.5s14.6-88.1-23.5-144.8C503.3,126.3,516.1,242.3,503,338.6z"/>
	<path class="st3" d="M538.8,322.2c0,0,17.2-44.1,20.5-64.5c3.3-20.4,11.1-83.7-26.7-136.2C532.6,121.5,548.2,230.8,538.8,322.2z"/>
	<path class="st0" d="M564.1,309.2c0,0,22.2-39.5,28.1-58.3c5.8-18.9,21.8-77.8-7-132.6C585.2,118.2,585.3,223.9,564.1,309.2z"/>
	<path class="st3" d="M594.1,292.4c0,0,25.1-36.1,32.4-53.8s28.1-73.2,5.3-128.7C631.9,109.9,622.4,211.9,594.1,292.4z"/>
	<path class="st0" d="M614.6,285.9c0,0,29.1-31.5,38.9-48.1c9.8-16.5,38.5-68.8,27.8-130.6C681.3,107.2,654.4,209.6,614.6,285.9z"/>
	<path class="st0" d="M662.4,262.4c0,0,31.2-31.8,41.9-48.7c10.7-16.9,42.1-70.2,32.9-134.6C737.2,79,706.1,184.4,662.4,262.4z"/>
	<path class="st3" d="M703.1,236.7c0,0,30.4-24.4,41.4-37.9c11-13.5,43.8-56.6,42.6-113.4C787.1,85.3,749.2,173.6,703.1,236.7z"/>
	<path class="st0" d="M756.7,212.4c0,0,25.3-20.3,34.4-31.5c9.2-11.3,36.4-47.1,35.4-94.3C826.5,86.6,795,160,756.7,212.4z"/>
	<path class="st0" d="M779.9,202.4c0,0,27.1-11.7,37.9-19.4s43.4-32.6,53.9-74.4C871.8,108.5,826.3,165.5,779.9,202.4z"/>
	<path class="st3" d="M503.5,336.5c0,0,47.8,15,66.7,25.8s76.4,46.2,94.6,112.1C664.9,474.4,585.1,389.2,503.5,336.5z"/>
	<path class="st0" d="M533,319.3c0,0,46.7,7.9,65.9,15.6s77.5,33.5,103.1,92.9C701.9,427.8,616.2,358.2,533,319.3z"/>
	<path class="st3" d="M566.3,307.3c0,0,45.2,2.2,64.3,7.3c19.1,5.1,77.5,22.9,108.5,76.4C739.2,391,649.8,334.7,566.3,307.3z"/>
	<path class="st0" d="M602.6,288.5c0,0,43.9,2.1,62.4,7.1c18.5,5,75.2,22.3,105.3,74.2C770.3,369.7,683.6,315.1,602.6,288.5z"/>
	<path class="st3" d="M627,273.9c0,0,45,0.2,64.2,4.5c19.2,4.3,77.9,19.4,111.1,71.2C802.4,349.6,711.1,297.6,627,273.9z"/>
	<path class="st3" d="M658.1,261.5c0,0,44.1-6.5,64-5.2c19.9,1.3,81.5,7.3,128.2,52.7C850.4,309,746.9,272,658.1,261.5z"/>
	<path class="st0" d="M703.7,236.7c0,0,38.3-7.2,55.7-6.8c17.4,0.4,71.5,3.6,113.8,41.5C873.2,271.4,781.5,242.8,703.7,236.7z"/>
	<path class="st3" d="M756.9,212.3c0,0,31.8-6,46.3-5.6c14.5,0.4,59.4,3,94.7,34.5C897.9,241.2,821.7,217.4,756.9,212.3z"/>
	<path class="st3" d="M779.4,202.1c0,0,27.4-11.1,40.4-13.4s53.7-8.1,90.9,13.8C910.7,202.6,838.2,195,779.4,202.1z"/>
	<path class="st3" d="M785.2,198.6c0,0,33.6-3.8,48-8.6c14.4-4.8,58.4-21.2,83.8-63.5C917,126.5,848.3,173.7,785.2,198.6z"/>
	<path class="st3" d="M410.8,383.8l-1.1-2.2c-0.6-1.3-0.1-2.9,1.2-3.6l386.2-187.9c1.3-0.6,2.9-0.1,3.6,1.2l1.1,2.2
		c0.6,1.3,0.1,2.9-1.2,3.6L414.3,385.1C413,385.7,411.4,385.2,410.8,383.8z"/>
</g>
<path class="st0" d="M561.7,884.5c-23.7,20.7-54,3.9-71.5-9.5c-1.3-1-2.6-2-3.8-3c-1.8,1.4-3.7,3-5.8,4.5
	c-17.7,13.1-46.6,27.8-69.4,7.9c-35.4-30.9-52.8-57.6-52-83.3c0-0.9,0.1-2,0.2-3.3c36.3,12.4,92.7,24.8,109.5,28.3
	c3.1,0.7,6.3-1.2,7-4.4c0.7-3-1.1-6.1-4.1-7.1c-14.8-4.9-47.7-19.9-77.1-33.7c-19.6-9.3-31-30.1-28.2-51.6
	c1.1-8.1,2.2-16.5,3.5-25.2c32.7,16.4,64.7,27.9,81.4,35.4c4,1.8,8.7-0.1,10.3-4.1c1.5-3.6-0.2-7.8-3.6-9.7
	c-12.3-7-27.3-13.7-53.3-28.5c-18.9-10.8-28.6-32.5-24.2-53.7c3.2-15.5,6.8-30.8,10.7-45.1c30.2,34.2,58.9,53.3,72.7,62.3
	c2.6,1.7,6.1,1.2,8.1-1.3c2.2-2.8,1.5-6.9-1.4-9c-29.9-20.9-38.3-41-54.4-66.9c-9.1-14.6-9.4-33.1-0.5-47.8
	c3.8-6.3,7.8-11.4,12-15.3c34.8-31.5,44-57.9,57.8-72.4h1.5c13.8,14.4,22.9,40.9,57.8,72.4c0.1,0,0.1,0.1,0.2,0.2
	c11.3,10.3,12.4,27.7,2.8,39.6c-14.5,18.1-30.7,36.7-40.1,43c-2.1,1.4-2.9,4.1-1.8,6.4l0.1,0.2c1.5,3.1,5.6,3.9,8,1.4
	c10.4-10.2,34.7-34.2,53.2-54.6c8.5,20.3,15.7,45.9,21.8,73c3.8,17.2-3.8,34.8-19,43.7c-18.7,11-36.3,21-46.2,25.8
	c-2.5,1.2-3.9,3.7-3.9,6.3c0,1,0.2,2.1,0.7,3.1c1.7,3.4,5.9,4.8,9.4,3.1c12.8-6.4,43-21.7,68.2-35.2c3.3,18.9,6,37.4,8.2,54.2
	c3.4,26-12.4,50.7-37.3,58.6c-18,5.7-36.3,10.7-51.2,12.9c-3,0.4-5.3,2.9-5.6,5.9l0,0.3c-0.4,4.5,3.6,8.1,8,7.1
	c18.5-4,61.9-13.7,92.9-21.8c0.3,3.4,0.4,6.1,0.5,7.9C614.6,827,597.2,853.6,561.7,884.5z"/>
<path class="st2" d="M490.2,875c-1.3-1-2.6-2-3.8-3c-1.8,1.4-3.7,3-5.8,4.5l2.4-361.1c0-3.3,1.1-5.9,2.4-5.9c0.6,0,1.2,0.7,1.7,1.7
	c0.4,1.1,0.7,2.5,0.7,4.2L490.2,875z"/>
<g>
	<path class="st1" d="M806.6,441.8v472.1c-26.8-0.1-51.4-18.9-70.8-50.1l39.8-10.1l-44-18l-12.2-3.9c-5.8-13.8-12.6-40.7-16.6-57
		l76,14.5l-83.1-53.5c-1.8-15.8-2.7-32.1-2.7-48.9c0-6.6,0.3-13.2,1-19.8l79.1,6L706,610.5c5.1-15.8,11.3-31,18.2-45.5l5.3,0.5
		l60.9,31.7l-49.8-60.5l-1.3-1C769.7,482.1,804.1,444.5,806.6,441.8z"/>
	<path class="st0" d="M918.4,730.2l-79,50.5l64-6.2l8.1,1c-4.8,22.2-11.2,42.6-19.1,60.5l-48.7,15.5l36.1,9.1
		c-19.8,33.2-45.2,53.5-73,53.5h-0.2V441.8c0.1-0.1,0.2-0.2,0.2-0.2s43.9,46.9,77.1,112.1l-45,31.3l59.1-0.8c8,19.5,14.6,40,18.5,61
		l-3,2.3l-63.2,50.6l70.2-11.9c0,0.2,0,0.4,0,0.7C920.5,701.7,919.8,716.2,918.4,730.2z"/>
	<path class="st5" d="M806.6,609.5v95L773,673.1L706,610.5c5.1-15.8,11.3-31,18.2-45.5l5.3,0.5l60.9,31.7L806.6,609.5z"/>
	<path class="st5" d="M920.5,687c0,14.7-0.7,29.2-2.1,43.2l-79,50.5l-32.8,19.1v-95.2l43.7-6.2l70.2-11.9
		C920.5,686.6,920.5,686.8,920.5,687z"/>
	<path class="st5" d="M883.9,553.8l-45,31.3l-32.3,24.4V441.8c0.1-0.1,0.2-0.2,0.2-0.2S850.6,488.6,883.9,553.8z"/>
	<path class="st5" d="M806.6,799.7v65.7l-87.1-33.6c-5.8-13.8-12.6-40.7-16.6-57l76,14.5L806.6,799.7z"/>
</g>
</svg>
